<svg id="Layer_1" data-name="Layer 1" xmlns="http://www.w3.org/2000/svg" xmlns:xlink="http://www.w3.org/1999/xlink" viewBox="0 0 303.37 78.96"><defs><style>.cls-1{fill:url(#linear-gradient);}.cls-2{fill:url(#linear-gradient-2);}.cls-3{fill:url(#linear-gradient-3);}.cls-4{fill:url(#linear-gradient-4);}.cls-5{fill:url(#linear-gradient-5);}.cls-6{fill:url(#linear-gradient-6);}.cls-7{fill:url(#linear-gradient-7);}.cls-8{fill:url(#linear-gradient-8);}.cls-9{fill:url(#linear-gradient-9);}.cls-10{fill:url(#linear-gradient-10);}</style><linearGradient id="linear-gradient" x1="137.95" y1="262.32" x2="192.74" y2="211.06" gradientTransform="matrix(1, 0, 0, -1, 0, 452)" gradientUnits="userSpaceOnUse"><stop offset="0" stop-color="#e5e2df"/><stop offset="0" stop-color="#ded9d6"/><stop offset="0.06" stop-color="#cfcac9"/><stop offset="0.18" stop-color="#a8a4a7"/><stop offset="0.26" stop-color="#8b878d"/><stop offset="0.52" stop-color="#f3f4f4"/><stop offset="0.58" stop-color="#e5e5e6"/><stop offset="0.7" stop-color="#c0bec0"/><stop offset="0.86" stop-color="#858085"/><stop offset="0.88" stop-color="#807b80"/><stop offset="1" stop-color="#d1d3d4"/><stop offset="1" stop-color="#a7a9ac"/></linearGradient><linearGradient id="linear-gradient-2" x1="164.2" y1="266.16" x2="176.14" y2="175.29" xlink:href="#linear-gradient"/><linearGradient id="linear-gradient-3" x1="148.71" y1="200.15" x2="470.86" y2="285.13" gradientTransform="matrix(1, 0, 0, -1, 0, 452)" gradientUnits="userSpaceOnUse"><stop offset="0" stop-color="#511035"/><stop offset="0.21" stop-color="#891d58"/><stop offset="0.55" stop-color="#531136"/><stop offset="0.87" stop-color="#891d58"/><stop offset="1" stop-color="#531136"/></linearGradient><linearGradient id="linear-gradient-4" x1="151.43" y1="189.84" x2="473.58" y2="274.81" xlink:href="#linear-gradient-3"/><linearGradient id="linear-gradient-5" x1="152.63" y1="185.28" x2="474.78" y2="270.25" xlink:href="#linear-gradient-3"/><linearGradient id="linear-gradient-6" x1="155.39" y1="174.8" x2="477.55" y2="259.77" xlink:href="#linear-gradient-3"/><linearGradient id="linear-gradient-7" x1="158.76" y1="162.05" x2="480.91" y2="247.02" xlink:href="#linear-gradient-3"/><linearGradient id="linear-gradient-8" x1="160.56" y1="155.23" x2="482.71" y2="240.21" xlink:href="#linear-gradient-3"/><linearGradient id="linear-gradient-9" x1="144.98" y1="214.27" x2="467.13" y2="299.25" xlink:href="#linear-gradient-3"/><linearGradient id="linear-gradient-10" x1="150.88" y1="191.92" x2="473.03" y2="276.9" xlink:href="#linear-gradient-3"/></defs><path class="cls-1" d="M188.28,191.24a37,37,0,0,0-9.1,2.16A33.68,33.68,0,0,0,165,203.79a33.19,33.19,0,0,0-7.34,17.07,34.79,34.79,0,0,0-.13,7.9,32.4,32.4,0,0,0,2.61,10,35.29,35.29,0,0,0,5.72,9.09,34.93,34.93,0,0,0,11.9,8.74,35.65,35.65,0,0,0,10.53,2.78v.42a21.07,21.07,0,0,1-3.37,0c-1.81-.27-3,.33-3.53,2.08a1.59,1.59,0,0,1-.15.29c-1.86,3.31-.93,2.71-4.58,2a33.65,33.65,0,0,1-5.09-1.48,1.19,1.19,0,0,1-1-1.35c.07-1.23.08-2.45.17-3.67a1.41,1.41,0,0,0-.88-1.54,34.92,34.92,0,0,1-3.46-2,1.25,1.25,0,0,0-1.57,0c-1.08.7-2.22,1.34-3.32,2A1.08,1.08,0,0,1,160,256a46.75,46.75,0,0,1-5.49-5.5.93.93,0,0,1-.08-1.26c.72-1.16,1.4-2.35,2.14-3.5a1,1,0,0,0,0-1.37,22,22,0,0,1-2.07-3.54,1.37,1.37,0,0,0-1.45-.86c-1.26.06-2.52,0-3.78.05a1.18,1.18,0,0,1-1.32-.84,46.34,46.34,0,0,1-2-7.41,1,1,0,0,1,.6-1.23c1.18-.63,2.32-1.31,3.51-1.92a1.11,1.11,0,0,0,.73-1.25,19.76,19.76,0,0,1,.06-4.21,1,1,0,0,0-.62-1.21c-1.22-.62-2.41-1.31-3.62-1.94a1.1,1.1,0,0,1-.66-1.31,47.51,47.51,0,0,1,2-7.3,1.21,1.21,0,0,1,1.37-.92h3.57a1.59,1.59,0,0,0,1.7-1,38,38,0,0,1,2-3.35,1.1,1.1,0,0,0,0-1.37c-.75-1.15-1.42-2.34-2.15-3.5a1,1,0,0,1,.1-1.35,47,47,0,0,1,5.41-5.43,1.17,1.17,0,0,1,1.55-.12c1.09.69,2.23,1.32,3.32,2a1.12,1.12,0,0,0,1.46,0,23.23,23.23,0,0,1,3.65-2.11,1.15,1.15,0,0,0,.74-1.28c-.08-1.26-.1-2.52-.17-3.78a1.25,1.25,0,0,1,1-1.43,54.25,54.25,0,0,1,7.2-1.94,1.13,1.13,0,0,1,1.42.64c.55,1,1.22,2,1.7,3.13a1.63,1.63,0,0,0,2,1.1,22.85,22.85,0,0,1,3.88,0,.54.54,0,0,1,.62.44A.41.41,0,0,1,188.28,191.24Z" transform="translate(-145.91 -185.76)"/><path class="cls-2" d="M188.28,191.52a36.5,36.5,0,0,0-8.93,2.15,34.37,34.37,0,0,0-18,16.73,33.34,33.34,0,0,0-3.1,10.51,35.44,35.44,0,0,0-.13,7.84,33,33,0,0,0,2.56,9.9,36.63,36.63,0,0,0,2.94,5.49A33.9,33.9,0,0,0,178,256.35a34.66,34.66,0,0,0,10.33,2.76v.42a20.2,20.2,0,0,1-3.3,0,2.75,2.75,0,0,0-3.42,1.86c0,.07,0,.14-.05.21a1.51,1.51,0,0,1-.15.28c-1.82,3.29-.91,2.7-4.5,2a34.89,34.89,0,0,1-5-1.46,1.21,1.21,0,0,1-.93-1.35c.06-1.21.08-2.43.17-3.64a1.41,1.41,0,0,0-.87-1.53,35.18,35.18,0,0,1-3.4-2,1.22,1.22,0,0,0-1.53,0c-1.07.71-2.18,1.33-3.26,2a1.05,1.05,0,0,1-1.43-.1,45.57,45.57,0,0,1-5.39-5.46.93.93,0,0,1-.08-1.25c.71-1.15,1.38-2.34,2.1-3.48a1.06,1.06,0,0,0,0-1.36,21.34,21.34,0,0,1-2-3.51,1.32,1.32,0,0,0-1.41-.85c-1.24.06-2.48,0-3.72.05a1.15,1.15,0,0,1-1.29-.84,46.51,46.51,0,0,1-1.94-7.35,1,1,0,0,1,.59-1.22c1.15-.62,2.28-1.3,3.44-1.91a1.08,1.08,0,0,0,.71-1.23,20.15,20.15,0,0,1,.07-4.18A1,1,0,0,0,151,222c-1.2-.62-2.37-1.3-3.55-1.93a1.07,1.07,0,0,1-.65-1.3,47.63,47.63,0,0,1,1.91-7.24,1.19,1.19,0,0,1,1.35-.91c1.16,0,2.33,0,3.5,0a1.58,1.58,0,0,0,1.67-1c.58-1.14,1.25-2.24,1.94-3.32a1.11,1.11,0,0,0,0-1.36c-.74-1.14-1.39-2.32-2.11-3.47a1,1,0,0,1,.09-1.34,45.9,45.9,0,0,1,5.32-5.39,1.11,1.11,0,0,1,1.51-.12c1.08.69,2.2,1.31,3.27,2a1.08,1.08,0,0,0,1.43,0,23,23,0,0,1,3.58-2.1,1.17,1.17,0,0,0,.73-1.27c-.08-1.25-.1-2.5-.17-3.75a1.25,1.25,0,0,1,1-1.42,54.21,54.21,0,0,1,7.06-1.93,1.11,1.11,0,0,1,1.39.64c.54,1,1.2,2,1.67,3.1a1.59,1.59,0,0,0,1.91,1.1,22,22,0,0,1,3.81,0,.55.55,0,0,1,.62.45Z" transform="translate(-145.91 -185.76)"/><path class="cls-3" d="M234.83,234.59h18.84a6.52,6.52,0,0,0,3.65-.79,3.33,3.33,0,0,0,.3-4.7,2.13,2.13,0,0,0-.3-.3,6.57,6.57,0,0,0-3.63-.8H246q-6.87,0-9.28-2.1c-1.61-1.4-2.41-3.89-2.42-7.46s1-6.31,2.92-8,4.95-2.57,9-2.57H265.4v7H249.62c-2.57,0-4.24.22-5,.67a2.52,2.52,0,0,0-1.16,2.4,2.67,2.67,0,0,0,1,2.31,5.54,5.54,0,0,0,3.21.73h8.09q5.55,0,8.46,2.59c1.94,1.72,2.92,4.21,2.92,7.47a11.17,11.17,0,0,1-2.59,7.65,8.43,8.43,0,0,1-6.66,2.95H234.83Z" transform="translate(-145.91 -185.76)"/><path class="cls-4" d="M291.94,234.4h9.5v7.24H289.31a24.86,24.86,0,0,1-7.57-1,12.91,12.91,0,0,1-5.16-3.09,16.29,16.29,0,0,1-3.68-5.65,19,19,0,0,1-1.33-7.07,20.12,20.12,0,0,1,1.31-7.32,15.48,15.48,0,0,1,3.7-5.69,13.39,13.39,0,0,1,5.22-3.09,25.43,25.43,0,0,1,7.51-1h12.13V215h-9.5q-6.3,0-8.68,2.18c-1.59,1.45-2.38,4-2.38,7.57a11.94,11.94,0,0,0,1,5.14,7.58,7.58,0,0,0,3,3.29,7,7,0,0,0,2.33.85A30,30,0,0,0,291.94,234.4Z" transform="translate(-145.91 -185.76)"/><path class="cls-5" d="M307.33,207.82h15q5.26,0,7.38,1.89t2.12,6.63V222H323.3v-4.35a3.7,3.7,0,0,0-.71-2.65c-.47-.45-1.54-.67-3.21-.67h-3.14v27.33h-8.93Z" transform="translate(-145.91 -185.76)"/><path class="cls-6" d="M338.21,207.82h18.3q6.93,0,10.44,3.18t3.51,9.45v21.19h-24q-5,0-7.76-2.54a9.4,9.4,0,0,1-2.71-7.21q0-5.76,3.12-8.28t10.36-2.5h11.76v-.85c0-2-.59-3.42-1.78-4.23s-3.28-1.22-6.31-1.22H338.21Zm11.88,27h11.19v-7H350.75c-2.09,0-3.53.28-4.33.84a3.38,3.38,0,0,0-1.19,3,2.92,2.92,0,0,0,1,2.49c.59.5,1.89.74,3.86.74Z" transform="translate(-145.91 -185.76)"/><path class="cls-7" d="M378.33,207.82h17.21q7.77,0,12.13,4.57T412,225.15a20.07,20.07,0,0,1-.91,6.16,16.44,16.44,0,0,1-2.76,5.13,12.32,12.32,0,0,1-5.27,4,22.57,22.57,0,0,1-8.15,1.21h-7.68V253.9H378.3Zm8.93,7.3V234.4h5.46q5.41,0,7.68-2.29c1.5-1.53,2.25-4.06,2.25-7.62s-.69-5.84-2.06-7.25-3.78-2.12-7.18-2.12Z" transform="translate(-145.91 -185.76)"/><path class="cls-8" d="M417,234.59h18.84a6.52,6.52,0,0,0,3.65-.79,3.33,3.33,0,0,0,.3-4.7,2.13,2.13,0,0,0-.3-.3,6.57,6.57,0,0,0-3.63-.8h-7.71q-6.87,0-9.28-2.1c-1.61-1.4-2.41-3.89-2.42-7.46s1-6.31,2.92-8,4.95-2.57,9-2.57h19.18v7H431.74c-2.57,0-4.24.22-5,.67a2.54,2.54,0,0,0-1.16,2.4,2.67,2.67,0,0,0,1,2.31,5.54,5.54,0,0,0,3.21.73h8.09q5.55,0,8.46,2.59c1.94,1.72,2.92,4.21,2.92,7.47a11.17,11.17,0,0,1-2.59,7.65,8.46,8.46,0,0,1-6.66,2.95H417Z" transform="translate(-145.91 -185.76)"/><path class="cls-9" d="M192.06,192.38a32.92,32.92,0,0,0,0,65.84,32.42,32.42,0,0,0,8.2-1,35,35,0,0,1-8.11-8.59h-.09a23.31,23.31,0,1,1,13.43-4.27,21.41,21.41,0,0,0,8.54,5.49,32.92,32.92,0,0,0-22-57.43Z" transform="translate(-145.91 -185.76)"/><path class="cls-10" d="M221.05,262.37a33,33,0,0,1-32.92-32.92h9.62a23.32,23.32,0,0,0,23.3,23.29Z" transform="translate(-145.91 -185.76)"/></svg>