<?xml version="1.0" standalone="no"?>
<!DOCTYPE svg PUBLIC "-//W3C//DTD SVG 20010904//EN"
 "http://www.w3.org/TR/2001/REC-SVG-20010904/DTD/svg10.dtd">
<svg version="1.0" xmlns="http://www.w3.org/2000/svg"
 width="500.000000pt" height="500.000000pt" viewBox="0 0 500.000000 500.000000"
 preserveAspectRatio="xMidYMid meet">
<metadata>
Created by potrace 1.14, written by Peter Selinger 2001-2017
</metadata>
<g transform="translate(0.000000,500.000000) scale(0.100000,-0.100000)"
fill="#000000" stroke="none">
<path d="M1990 4864 c-30 -7 -64 -15 -75 -18 -94 -21 -134 -31 -231 -62 -61
-19 -119 -43 -128 -53 -16 -18 -17 -36 -12 -166 3 -86 2 -155 -4 -165 -5 -10
-40 -33 -77 -51 -37 -19 -97 -53 -133 -76 -36 -24 -74 -43 -84 -43 -10 0 -76
34 -145 76 -141 84 -148 85 -216 29 -123 -101 -315 -311 -315 -345 0 -10 36
-78 80 -150 89 -148 88 -138 22 -238 -21 -31 -49 -79 -62 -105 -47 -90 -51
-92 -221 -93 -127 -1 -152 -4 -169 -19 -20 -18 -63 -137 -101 -280 -21 -82
-30 -249 -13 -265 5 -4 59 -33 119 -65 61 -32 117 -64 125 -71 13 -11 16 -40
13 -180 -2 -168 -7 -188 -43 -203 -38 -16 -210 -114 -216 -123 -12 -19 -4
-183 12 -248 28 -116 84 -278 101 -292 12 -9 58 -13 170 -14 174 -2 174 -2
213 -81 13 -27 47 -86 76 -131 33 -52 50 -90 47 -100 -8 -21 -122 -212 -140
-233 -34 -41 -6 -83 165 -255 49 -49 112 -109 141 -133 45 -38 56 -43 87 -38
19 3 81 35 138 70 58 36 114 68 126 72 16 5 46 -7 113 -48 51 -30 113 -66 139
-81 26 -14 50 -36 54 -48 7 -23 7 -106 -1 -218 -6 -88 6 -108 80 -137 58 -23
253 -77 318 -88 18 -3 48 -11 69 -17 20 -6 47 -8 61 -4 29 7 81 84 122 180 18
43 37 69 62 86 34 24 40 24 189 22 l154 -3 0 24 c0 13 -6 24 -12 24 -7 0 -31
3 -53 7 -22 4 -58 9 -80 12 -205 27 -535 155 -726 281 -40 27 -79 53 -88 58
-31 19 -204 168 -255 219 -158 158 -307 369 -401 571 -76 163 -151 403 -169
545 -3 25 -9 65 -13 90 -15 96 -8 411 12 532 2 13 6 39 9 58 22 147 93 366
173 528 233 478 669 864 1158 1027 103 34 258 71 363 86 81 11 92 18 72 49 -7
12 -38 15 -165 15 -186 0 -171 -8 -256 148 -83 152 -85 154 -179 131z"/>
<path d="M2650 4477 c-3 -3 -35 -7 -71 -11 -330 -31 -727 -203 -1004 -436
-214 -179 -359 -357 -483 -590 -75 -140 -158 -359 -176 -463 -3 -15 -7 -35
-10 -45 -6 -21 -15 -65 -21 -113 -3 -19 -9 -64 -14 -100 -9 -68 -8 -390 2
-424 3 -11 8 -42 12 -70 3 -27 17 -99 32 -160 170 -721 739 -1288 1463 -1456
25 -6 56 -13 70 -15 14 -2 34 -6 46 -9 20 -4 76 -11 164 -20 62 -6 276 -7 325
-1 22 3 65 8 95 12 61 7 68 8 158 25 34 6 62 15 62 19 0 4 -30 32 -67 63 -126
101 -261 245 -357 380 l-48 67 -51 1 c-197 3 -434 67 -617 166 -238 130 -456
355 -580 603 -39 78 -105 262 -115 322 -3 18 -8 40 -10 48 -11 42 -19 158 -18
270 2 355 143 693 399 953 197 200 457 338 739 392 117 23 338 27 452 8 207
-33 402 -110 576 -227 295 -198 520 -538 581 -878 24 -134 26 -148 26 -268 2
-410 -184 -808 -500 -1069 -36 -29 -69 -57 -74 -61 -11 -11 4 -28 94 -103 95
-80 163 -124 270 -175 135 -65 127 -66 214 22 315 317 514 735 562 1185 11
105 11 276 -2 396 -90 865 -737 1571 -1584 1730 -33 6 -107 18 -135 22 -45 6
-400 14 -405 10z"/>
<path d="M2672 2272 l-84 -3 6 -97 c9 -146 15 -187 43 -312 130 -591 506
-1074 1044 -1342 125 -62 299 -128 396 -149 32 -7 60 -13 63 -14 83 -21 176
-33 318 -41 85 -6 92 -5 92 13 4 141 4 553 0 554 -3 0 -27 2 -55 4 -146 8
-275 34 -405 80 -85 31 -246 108 -270 130 -9 8 -20 15 -24 15 -14 0 -150 110
-220 178 -184 179 -313 411 -377 676 -18 75 -34 213 -33 279 1 27 0 27 -65 28
-36 0 -129 1 -206 2 -77 1 -178 1 -223 -1z"/>
</g>
</svg>
